<?xml version="1.0" encoding="utf-8"?>
<!-- Generator: Adobe Illustrator 27.4.1, SVG Export Plug-In . SVG Version: 6.00 Build 0)  -->
<svg version="1.1" id="Capa_1" xmlns="http://www.w3.org/2000/svg" xmlns:xlink="http://www.w3.org/1999/xlink" x="0px" y="0px"
	 viewBox="0 0 32 32" style="enable-background:new 0 0 32 32;" xml:space="preserve">
<style type="text/css">
	.st0{fill:none;stroke:#E95B33;stroke-width:4;stroke-linecap:round;stroke-linejoin:round;stroke-miterlimit:5.3333;}
</style>
<path class="st0" d="M28,21.3V10.7c0-1-0.5-1.8-1.3-2.3L17.3,3c-0.8-0.5-1.8-0.5-2.7,0L5.3,8.4C4.5,8.8,4,9.7,4,10.7v10.7
	c0,1,0.5,1.8,1.3,2.3l9.3,5.3c0.8,0.5,1.8,0.5,2.7,0l9.3-5.3C27.5,23.2,28,22.3,28,21.3z"/>
<polyline class="st0" points="10,5.6 16,9.1 22,5.6 "/>
<polyline class="st0" points="10,26.4 10,19.5 4,16 "/>
<polyline class="st0" points="28,16 22,19.5 22,26.4 "/>
<polyline class="st0" points="4.4,9.3 16,16 27.6,9.3 "/>
<line class="st0" x1="16" y1="29.4" x2="16" y2="16"/>
</svg>
