<?xml version="1.0" encoding="utf-8"?>
<!-- Generator: Adobe Illustrator 27.4.1, SVG Export Plug-In . SVG Version: 6.00 Build 0)  -->
<svg version="1.1" id="Capa_1" xmlns="http://www.w3.org/2000/svg" xmlns:xlink="http://www.w3.org/1999/xlink" x="0px" y="0px"
	 viewBox="0 0 32 32" style="enable-background:new 0 0 32 32;" xml:space="preserve">
<style type="text/css">
	.st0{fill:none;stroke:#E95B33;stroke-width:4;stroke-linecap:round;stroke-linejoin:round;stroke-miterlimit:5.3333;}
</style>
<path class="st0" d="M8,5.3h16c1.5,0,2.7,1.2,2.7,2.7v16c0,1.5-1.2,2.7-2.7,2.7H8c-1.5,0-2.7-1.2-2.7-2.7V8C5.3,6.5,6.5,5.3,8,5.3z"
	/>
<rect x="12" y="12" class="st0" width="8" height="8"/>
<line class="st0" x1="12" y1="1.3" x2="12" y2="5.3"/>
<line class="st0" x1="20" y1="1.3" x2="20" y2="5.3"/>
<line class="st0" x1="12" y1="26.7" x2="12" y2="30.7"/>
<line class="st0" x1="20" y1="26.7" x2="20" y2="30.7"/>
<line class="st0" x1="26.7" y1="12" x2="30.7" y2="12"/>
<line class="st0" x1="26.7" y1="18.7" x2="30.7" y2="18.7"/>
<line class="st0" x1="1.3" y1="12" x2="5.3" y2="12"/>
<line class="st0" x1="1.3" y1="18.7" x2="5.3" y2="18.7"/>
</svg>
